<svg xmlns="http://www.w3.org/2000/svg" viewBox="0 0 413.37 413.38"><defs><style>.cls-1{fill:#d4b67a;} .cercle{fill:#d4b67a;}</style></defs><g id="Calque_2" data-name="Calque 2"><g id="Vecto"><path class="cls-1" d="M63.75,192l-2.84-.28a4.08,4.08,0,0,1-3.68-4.07v-4.18a4.08,4.08,0,0,1,3.71-4.07l2.37-.22a4.07,4.07,0,0,0,3.62-3.25c3.44-17,9.28-22.19,28-23.42,9.31-.62,19.11,1,28.18,3.51,6,1.62,10.55,5.7,11.91,12.36a4.1,4.1,0,0,1-4.09,4.88c-2.21,0-4.38,0-6.54.09-3.9.22-6.55-.42-9-4.38-3.53-5.85-13-7.37-21-4.62-5.23,1.82-8,5.17-8.91,10a4.08,4.08,0,0,0,4,4.73h42a4.08,4.08,0,0,1,4,3.53l.39,2.84a6.18,6.18,0,0,0,2-.49c13.84-9.48,28.74-9.22,43.91-4.42,7.57,2.4,13.46,7.9,13.93,15.79.8,13.36.35,26.8.27,40.46a4.11,4.11,0,0,1-4.09,4.08h-9.58a4.11,4.11,0,0,1-4.09-4.11c0-8.94,0-17.66,0-26.38,0-12.79-6.76-19.31-19.86-19.34-14.71,0-22.55,6.57-22.74,19.38-.12,8.56-.05,17.13,0,26.08a4.1,4.1,0,0,1-4.09,4.11h-9.85a4.09,4.09,0,0,1-4.09-4.09V196.36a4.09,4.09,0,0,0-4.09-4.09H89.86a4.09,4.09,0,0,0-4.09,4.09v40.36a4.09,4.09,0,0,1-4.08,4.09H71.52a4.09,4.09,0,0,1-4.09-4.09V196.05A4.09,4.09,0,0,0,63.75,192Z"/><path class="cls-1" d="M271.55,241c-8.8,1.27-12.08,1-13.76-2a4,4,0,0,0-5.46-1.37c-11.61,6.2-24,5.77-36.69,2.75a25.88,25.88,0,0,1-4.22-1.34c-8.69-3.73-13-10.31-11.81-18.68a13,13,0,0,1,11.19-11.39c10.66-1.84,21.47-2.74,32.21-4.14,3.16-.42,6.44-.73,9.36-1.89,5.49-2.17,6-6.47,1.67-10.2-7.93-6.76-26.62-4.11-32.54,4.44a6.62,6.62,0,0,1-4.36,2.59c-3.17.23-6.37.2-9.78.16a4.09,4.09,0,0,1-3.9-5.24c2.08-6.79,6.89-11.19,13.55-13.61,14.43-5.22,29.25-4.58,43.6.24,9.49,3.19,14.65,10.35,14.5,20.89-.16,11.6-.06,23.2,0,34.77A4.11,4.11,0,0,1,271.55,241ZM257,218.12a4,4,0,0,0-4.39-4.15c-3.61.26-7,.48-10.41.91-5.85.74-11.81,1.27-17.41,3-2.07.62-4.58,4.26-4.49,6.43s2.77,5.94,4.78,6.33c7.81,1.48,16.27.3,23.76-1.89A11.32,11.32,0,0,0,257,218.12Z"/><path class="cls-1" d="M352.16,221a4.12,4.12,0,0,1,3.59,5.9c-3.22,6.88-9.18,10.73-16.47,12.87a68.83,68.83,0,0,1-38.77-.1c-14.27-4.09-22.65-15.6-22.64-29.46s8.65-25.23,23-29.2a68.43,68.43,0,0,1,38-.11c7.31,2.15,13.5,5.8,16.84,13a4.11,4.11,0,0,1-3.53,5.9c-6.24.24-12.18,1.13-17.71-4.95-5.91-6.52-23-5.14-30.6.75-6.29,4.84-8.53,14-5.38,22.17,4.45,11.48,25,17.54,35,8.57C339.6,220.84,345.63,220.82,352.16,221Z"/><path  class="cercle" d="M206.69,413.38C92.72,413.38,0,320.66,0,206.69S92.72,0,206.69,0,413.37,92.72,413.37,206.69,320.66,413.38,206.69,413.38Zm0-401C99.54,12.36,12.36,99.54,12.36,206.69S99.54,401,206.69,401,401,313.84,401,206.69,313.84,12.36,206.69,12.36Z"/></g></g></svg>