<svg xmlns="http://www.w3.org/2000/svg" viewBox="0 0 413.38 413.38"><defs><style>.cls-1{fill:#d4b67a;} .cercle {
                          fill: #d4b67a;
                        }</style></defs><g id="Calque_2" data-name="Calque 2"><g id="Vecto"><polygon class="cls-1" points="115.4 369.54 114.88 47.12 180.84 47.12 180.84 59.48 127.25 59.48 127.73 355.97 174.66 351.59 174.66 218.96 187.02 218.96 187.02 362.85 115.4 369.54"/><polygon class="cls-1" points="298.06 368.28 230.73 364.41 231.45 352.06 285.7 355.19 285.7 59.48 236.76 59.48 236.98 192.09 224.62 192.11 224.38 47.12 298.06 47.12 298.06 368.28"/><path class="cls-1" d="M291.87,367.93h-.36l-60.78-3.52a6.17,6.17,0,0,1-5.46-4.07L115.25,55.4a6.19,6.19,0,0,1,5.82-8.28h59.78a6.18,6.18,0,0,1,5.81,4.09l111,308.44a6.18,6.18,0,0,1-5.81,8.28ZM235.51,352.3,282.88,355,176.51,59.48H129.87Z"/><path class="cercle" d="M206.69,413.38C92.72,413.38,0,320.66,0,206.69S92.72,0,206.69,0,413.38,92.72,413.38,206.69,320.66,413.38,206.69,413.38Zm0-401C99.54,12.36,12.36,99.54,12.36,206.69S99.54,401,206.69,401,401,313.84,401,206.69,313.84,12.36,206.69,12.36Z"/></g></g></svg>