<svg xmlns="http://www.w3.org/2000/svg" viewBox="0 0 413.37 413.38"><defs><style>.cls-1{fill:#d4b67a;} .cercle {
                          fill: #d4b67a;
                        }</style></defs><g id="Calque_2" data-name="Calque 2"><g id="Vecto"><path class="cls-1" d="M213.26,325.62a241.7,241.7,0,0,1-84.83-14.27,216.77,216.77,0,0,1-34.34-15.63c-4.9-2.8-9.64-5.88-14.43-8.86a239.54,239.54,0,0,1-22.55-16.42c-2.2-1.75-4.29-3.63-6.43-5.46-.23-.19-.44-.39-.65-.6-1.3-1.32-2-2.81-1-4.58.82-1.4,2.79-1.59,4.81-.53,2.56,1.35,5.08,2.76,7.61,4.16a293.55,293.55,0,0,0,41.7,18.74,320.71,320.71,0,0,0,40,11.81,327.8,327.8,0,0,0,44.3,6.81,318.54,318.54,0,0,0,39.32.8A307.62,307.62,0,0,0,288.07,293,331.5,331.5,0,0,0,332.27,279c2-.8,3.93-1.77,6-2.39,4.17-1.27,7.68,1.34,7.11,5.14a5.58,5.58,0,0,1-2.59,3.73,196.37,196.37,0,0,1-31.24,18.15,240.66,240.66,0,0,1-25.78,10.09A243.74,243.74,0,0,1,239,323.87,215,215,0,0,1,213.26,325.62Z"/><path class="cls-1" d="M208.42,183.5q0-13.67,0-27.34c0-4.06.83-4.81,4.82-4.63,2.07.1,4.14,0,6.22,0,3.24,0,4.13.6,5.07,3.72.42,1.38.51,2.42,2.51,1.22,4.72-2.84,9.6-5.43,15.17-6.37,5.75-1,11.35-1.13,16.52,2.21a11.11,11.11,0,0,1,3.57,3.28c1,1.55,1.9,1.77,3.6.75,4.25-2.58,8.66-4.94,13.64-5.73,5.92-.94,11.85-1.81,17.55,1.22,6.39,3.4,8.77,9.05,8.84,15.8.14,14.37.08,28.75,0,43.13,0,4.18-.49,4.57-4.59,4.58h-10c-3.21,0-3.85-.64-3.86-3.94V172.71c0-7-3-9.7-10-8.92a38.21,38.21,0,0,0-9,2.25,2.65,2.65,0,0,0-2,2.94c.07,14.08,0,28.16,0,42.24,0,3.6-.51,4.09-4.11,4.1H252c-3.36,0-4-.6-4-4q0-19.46,0-38.91a11.34,11.34,0,0,0-.91-5.2,6.41,6.41,0,0,0-6-3.44,30.79,30.79,0,0,0-12.32,2.51,2.65,2.65,0,0,0-1.8,2.88c.06,13.64,0,27.27,0,40.91,0,5.14-.14,5.27-5.17,5.27-3.19,0-6.38,0-9.56,0s-3.81-.73-3.82-3.79c0-6.82,0-13.64,0-20.46Z"/><path class="cls-1" d="M50.06,196.15q0-20.24,0-40.46c0-3.5.8-4.29,4.32-4.31,2.45,0,4.9.09,7.33,0s3.72,1,4.41,3.18c.79,2.56.81,2.53,3,.88,7.12-5.29,15.08-7.21,23.71-5.18,9.5,2.22,14.9,8.93,17.86,17.79a45.1,45.1,0,0,1-.82,31.07C104.2,214,91,220.19,75.6,214.82a43.65,43.65,0,0,1-5-2.59c-.56-.28-1-1.14-1.72-.67s-.29,1.24-.29,1.89q0,11.55,0,23.12c0,3.91-.59,4.48-4.5,4.48-3.34,0-6.67,0-10,0-3,0-4-1-4-4q0-10.22,0-20.45Zm18.56-13.07h0c0,4.74.09,9.48,0,14.22a3.05,3.05,0,0,0,2.17,3.33,27.18,27.18,0,0,0,7.46,2.08c6.94.91,11.87-1.49,14-7.68,3-8.5,3-17.15-.7-25.54-1.64-3.7-4.84-5.55-8.78-5.88a23.76,23.76,0,0,0-12.32,2.16,2.76,2.76,0,0,0-1.86,2.87C68.66,173.45,68.62,178.26,68.62,183.08Z"/><path class="cls-1" d="M317.32,183.89a33.93,33.93,0,0,1,5.72-21.7c4.77-7.37,11.83-11.4,20.34-12.48,6.23-.8,12.51-.61,18.56,2A19.31,19.31,0,0,1,374,169.6c-.07,6.6-2,11.85-7.64,15.22a33.64,33.64,0,0,1-15.87,4.54,54.55,54.55,0,0,1-14.37-1c-1.77-.4-2.09.27-1.86,1.84,1.19,7.89,7.27,12.92,16,13.06A56.71,56.71,0,0,0,367,201.06c3.31-1,4.65,0,4.65,3.37,0,2.08,0,4.15,0,6.23a2.64,2.64,0,0,1-1.7,2.81c-10.89,4-22,5.57-33.25,2-11.81-3.77-18-13.66-19.27-25.53A60,60,0,0,1,317.32,183.89Zm27.89-6a17.51,17.51,0,0,0,6.55-.87c3.51-1,5.5-3.5,5.53-6.88,0-3.86-1.71-6.46-5.46-7.32-10.1-2.34-16,3.58-17.31,12.73-.15,1.08.43,1.38,1.39,1.52A70.42,70.42,0,0,0,345.21,177.9Z"/><path class="cls-1" d="M124.84,183.69V155.47c0-3.33.7-4,4-4.07,2.74,0,5.48,0,8.23,0,1.9,0,3.22.82,3.61,2.87.27,1.37.76,2.7,1.12,4.06.14.55,0,1.31.73,1.46s1-.5,1.43-.9a29.07,29.07,0,0,1,12.69-7.68,23.51,23.51,0,0,1,6.85-.4,2.41,2.41,0,0,1,2.59,2.68c0,3.78,0,7.56,0,11.33,0,2.15-.94,2.89-3.32,2.87-5-.06-9.92,0-14.76,1.34-.15,0-.3,0-.44.07-4.22.94-4.22.94-4.23,5.2q0,18.21,0,36.44c0,4.15-.42,4.56-4.56,4.57l-10.22,0c-3,0-3.71-.7-3.72-3.64q0-14,0-28Z"/><path class="cls-1" d="M373.85,264.29a68.78,68.78,0,0,1-13.38,38.61,50.51,50.51,0,0,1-7.17,7.87,5.72,5.72,0,0,1-1.38,1.09c-1,.48-2.13,1.33-3.3.4s-.79-2.25-.36-3.46c3-8.36,6.61-16.5,8.74-25.15a41.35,41.35,0,0,0,1.71-11.16c-.1-3.21-1.11-4.75-4.22-5.73-5.23-1.66-10.65-1.69-16.06-1.46-7.1.3-14.16,1.08-21.23,1.91-1.42.16-3.37.84-4-1.27-.56-1.92,1-3,2.34-3.87,8.64-5.83,18.39-8.38,28.61-9.34a76,76,0,0,1,20.58.85,41.61,41.61,0,0,1,6.32,1.94,4,4,0,0,1,2.8,4.1C373.84,261.18,373.85,262.73,373.85,264.29Z"/><path class="cls-1" d="M174.9,183.4q0-14.11,0-28.22c0-2.87.69-3.58,3.49-3.6q5.78,0,11.55,0c2.47,0,3.29.74,3.29,3.12q0,28.77,0,57.55c0,2.2-.9,3-3.17,3.05-3.93,0-7.85.05-11.78,0-2.58,0-3.38-.83-3.38-3.51q0-14.22,0-28.44Z"/><path class="cls-1" d="M183.88,141.84c-8.25,0-13.17-7.84-9.34-14.79a8.18,8.18,0,0,1,8.41-4.34,12.14,12.14,0,0,0,2,0c6.42-.41,10.59,4.09,9.74,10.51C194,138.68,190,141.87,183.88,141.84Z"/><path class="cercle" d="M206.69,413.38C92.72,413.38,0,320.66,0,206.69S92.72,0,206.69,0,413.37,92.72,413.37,206.69,320.66,413.38,206.69,413.38Zm0-401C99.54,12.36,12.36,99.54,12.36,206.69S99.54,401,206.69,401,401,313.84,401,206.69,313.84,12.36,206.69,12.36Z"/></g></g></svg>