<?xml version="1.0" encoding="utf-8"?>
<!-- Generator: Adobe Illustrator 25.0.1, SVG Export Plug-In . SVG Version: 6.00 Build 0)  -->
<svg version="1.1" id="Calque_2" xmlns="http://www.w3.org/2000/svg" xmlns:xlink="http://www.w3.org/1999/xlink" x="0px" y="0px"
	 viewBox="0 0 22 21" style="enable-background:new 0 0 22 21;" xml:space="preserve">
<style type="text/css">
	.st0{fill:#D4B67A;}
</style>
<path class="st0" d="M11.5,1.1l2.7,5.6c0.1,0.2,0.2,0.3,0.4,0.3l6.2,0.8c0.4,0.1,0.6,0.6,0.3,0.9L16.5,13c-0.1,0.1-0.2,0.3-0.2,0.5
	l1.1,6.1c0.1,0.4-0.4,0.8-0.8,0.6l-5.5-2.9c-0.2-0.1-0.3-0.1-0.5,0l-5.5,2.9c-0.4,0.2-0.9-0.1-0.8-0.6l1.1-6.1c0-0.2,0-0.4-0.2-0.5
	L1,8.7C0.6,8.4,0.8,7.9,1.3,7.8L7.4,7c0.2,0,0.3-0.1,0.4-0.3l2.7-5.6C10.7,0.7,11.3,0.7,11.5,1.1z"/>
</svg>
