<svg xmlns="http://www.w3.org/2000/svg" viewBox="0 0 129.72 129.72"><defs><style>.cls-1{fill:#d4b67a;}.cls-2{fill:#fff;}</style></defs><g id="Calque_2" data-name="Calque 2"><g id="contours"><path class="cercle" d="M64.86,129.72a64.86,64.86,0,1,1,64.86-64.86A64.93,64.93,0,0,1,64.86,129.72Zm0-125.84a61,61,0,1,0,61,61A61.05,61.05,0,0,0,64.86,3.88Z"/><path class="cls-1" d="M104.35,64.05c0-1.56,0-3.12,0-4.68v-.93a130.48,130.48,0,0,0-.51-14.1,22.3,22.3,0,0,0-4.66-12c-4-4.94-9.42-7.53-16.65-7.91C76.52,24.13,70.28,24,64,24s-12.67.16-19.23.47a24.32,24.32,0,0,0-11.71,3.5,25.37,25.37,0,0,0-4.87,4.24l-.09.12a1.63,1.63,0,0,1-.37.49,23.29,23.29,0,0,0-4.3,11.82A130,130,0,0,0,23,58.14c0,2.13,0,4.24,0,6.37,0,6.27-.05,12.76.35,19.1A27.47,27.47,0,0,0,27.11,96c.39.42.78.84,1.16,1.27.86,1,1.68,1.89,2.58,2.73a22.79,22.79,0,0,0,12.48,5,121.43,121.43,0,0,0,12.63.5h.3l10.94,0h4.67l.34,0,1,0,1.69,0a92.66,92.66,0,0,0,9.27-.47c5.47-.65,9.78-2.54,13.16-5.77,4.05-3.86,6.23-9,6.67-15.75C104.41,77,104.38,70.4,104.35,64.05Zm-5,18.18A22,22,0,0,1,97,91.93c-2.41,4.39-6.36,7.12-11.74,8.08a56,56,0,0,1-9.72.66l-2.11,0c-3.89,0-7.92.09-11.87.09-5.72,0-10.45-.09-14.87-.26a24.92,24.92,0,0,1-9.24-1.88l-.17-.08a6,6,0,0,1-1.58-.92A15.33,15.33,0,0,1,28.6,87.1a21.71,21.71,0,0,1-.74-5.51l0-.41c-.24-5.42-.22-10.91-.2-16.24,0-1.78,0-3.58,0-5.37,0-4.8,0-9.14.35-13.59a.47.47,0,0,0,0-.12,3,3,0,0,1,.19-1.09c.49-6.61,4.35-12.05,10.13-14.26A24.13,24.13,0,0,1,46.23,29c5.69-.21,11.52-.31,17.32-.31S75,28.8,80.8,29a22,22,0,0,1,9.81,2.27c4.47,2.36,7.26,6.31,8.28,11.73a55,55,0,0,1,.68,9.63l0,2.18C99.69,63.79,99.78,73.08,99.38,82.23Z"/><path class="cls-1" d="M83.38,60.69c-1.67-7.87-6.42-13-14.13-15.27a21.49,21.49,0,0,0-6.07-.91,19,19,0,0,0-12.44,4.76A19.71,19.71,0,0,0,43.46,65a21.49,21.49,0,0,0,1.88,8.42,21.45,21.45,0,0,0,8.35,9,1.83,1.83,0,0,1,.73.38l2.63,1.14a8.67,8.67,0,0,1,1.85.54,5.58,5.58,0,0,1,.64.08,24.93,24.93,0,0,0,4.38.42A19.18,19.18,0,0,0,77.4,79.47C82.9,74.27,84.91,68,83.38,60.69ZM63.64,80.27h-.1a15.52,15.52,0,0,1,.08-31h.08a15.52,15.52,0,0,1-.06,31Z"/><path class="cls-1" d="M60.46,86.14c.79.12,1.56.18,2.32.22C62,86.32,61.25,86.25,60.46,86.14Z"/><path class="cls-1" d="M89.58,42.2a3.12,3.12,0,0,1-1,2.29A3.83,3.83,0,0,1,86,45.65h0a3.59,3.59,0,0,1-3.51-3.49A3.46,3.46,0,0,1,86,38.61,3.63,3.63,0,0,1,89.58,42.2Z"/></g></g></svg>