<svg xmlns="http://www.w3.org/2000/svg" viewBox="0 0 129.72 129.72"><defs><style>.cls-1{fill:#d4b67a;}</style></defs><g id="Calque_2" data-name="Calque 2"><g id="contours"><path class="cls-1" d="M64.86,129.72a64.86,64.86,0,1,1,64.86-64.86A64.94,64.94,0,0,1,64.86,129.72Zm0-125.84a61,61,0,1,0,61,61A61.05,61.05,0,0,0,64.86,3.88Z"/><path class="cls-1" d="M96.17,39.65a3,3,0,0,1,3,3V88.35a3,3,0,0,1-3,3H33.39a3,3,0,0,1-3-3V42.66a3,3,0,0,1,3-3H96.17m0-3.88H33.39a6.89,6.89,0,0,0-6.89,6.89V88.35a6.89,6.89,0,0,0,6.89,6.89H96.17a6.89,6.89,0,0,0,6.89-6.89V42.66a6.89,6.89,0,0,0-6.89-6.89Z"/><path class="cls-1" d="M64.78,67.44a2,2,0,0,1-1-.3L27.61,44.3,29.69,41,64.82,63.24l35.62-20.6L102.38,46,65.75,67.18A1.86,1.86,0,0,1,64.78,67.44Z"/></g></g></svg>