<svg xmlns="http://www.w3.org/2000/svg" viewBox="0 0 129.72 129.72"><defs><style>.cls-1{fill:#d4b67a;}</style></defs><g id="Calque_2" data-name="Calque 2"><g id="contours"><path class="cls-1" d="M64.86,129.72a64.86,64.86,0,1,1,64.86-64.86A64.93,64.93,0,0,1,64.86,129.72Zm0-125.84a61,61,0,1,0,61,61A61.05,61.05,0,0,0,64.86,3.88Z"/><path class="cls-1" d="M51.87,102a48.19,48.19,0,0,1-26-7.65,1.73,1.73,0,0,1,1-3.19,33.14,33.14,0,0,0,19.34-4.34c-5.87-1.67-10-5.57-12.49-11.82a1.73,1.73,0,0,1,1.59-2.37c.19,0,.38,0,.57,0-5.48-3.76-8.39-9.18-8-15.27A1.72,1.72,0,0,1,30.37,56l1,.44a18,18,0,0,1-3-6.75,18.49,18.49,0,0,1,2-13.2,1.73,1.73,0,0,1,2.83-.3c8.39,9.82,18.53,15.27,31,16.63-.61-9.63,5-17.61,14.18-19.79A17.7,17.7,0,0,1,94.8,37.19c.39.35.51.39,1.17.22a34.94,34.94,0,0,0,8.42-3.48,1.73,1.73,0,0,1,2.51,2,17.06,17.06,0,0,1-2.81,5.54c.93-.31,1.85-.64,2.8-1a1.73,1.73,0,0,1,2,2.58,32.61,32.61,0,0,1-7.44,8.09,1,1,0,0,0-.48,1C101,76.31,85.12,96.38,62.36,101A52.86,52.86,0,0,1,51.87,102ZM33.43,94.55a45.14,45.14,0,0,0,28.24,3C82.8,93.32,97.55,74.64,97.55,52.15a4.29,4.29,0,0,1,1.84-3.75,28.12,28.12,0,0,0,3.2-2.88,27.56,27.56,0,0,1-3.94.72,1.73,1.73,0,0,1-1.23-3.1,19.12,19.12,0,0,0,4.06-3.94,36.14,36.14,0,0,1-4.64,1.56,4.31,4.31,0,0,1-4.31-.95,14.37,14.37,0,0,0-13.35-3.46C71,38.28,66.46,45.54,67.86,54.41a1.76,1.76,0,0,1-.43,1.44,1.73,1.73,0,0,1-1.4.55,49.5,49.5,0,0,1-33.63-16,14.73,14.73,0,0,0-.64,8.53,15.49,15.49,0,0,0,6.11,9.18,1.71,1.71,0,0,1,.56,2,1.75,1.75,0,0,1-1.7,1.13l-.59,0a7.31,7.31,0,0,1-.92-.06,20,20,0,0,1-3.77-1c.64,5.33,4.68,9.73,11.42,12.28A1.74,1.74,0,0,1,44,74a1.71,1.71,0,0,1-1.16,1.6,12.84,12.84,0,0,1-4.71.57c2.69,4.87,6.82,7.43,12.8,8a1.73,1.73,0,0,1,.87,3.11A36,36,0,0,1,33.43,94.55Z"/></g></g></svg>